<?xml version="1.0" encoding="utf-8"?>
<!-- Generator: Adobe Illustrator 15.1.0, SVG Export Plug-In . SVG Version: 6.00 Build 0)  -->
<!DOCTYPE svg PUBLIC "-//W3C//DTD SVG 1.1//EN" "http://www.w3.org/Graphics/SVG/1.1/DTD/svg11.dtd">
<svg version="1.1"
	 id="svg2985" xmlns:svg="http://www.w3.org/2000/svg" xmlns:cc="http://creativecommons.org/ns#" xmlns:rdf="http://www.w3.org/1999/02/22-rdf-syntax-ns#" xmlns:dc="http://purl.org/dc/elements/1.1/"
	 xmlns="http://www.w3.org/2000/svg" xmlns:xlink="http://www.w3.org/1999/xlink" x="0px" y="0px" width="299.351px"
	 height="96.139px" viewBox="33.124 1303.283 299.351 96.139" enable-background="new 33.124 1303.283 299.351 96.139"
	 xml:space="preserve">
<g>
	<g>
		<path stroke="#000000" stroke-miterlimit="10" d="M74.637,1350.508h15.71c0.071,0.947,0.107,2.281,0.107,4
			c0,6.607-0.81,10.693-2.431,12.26c-1.62,1.566-5.85,2.35-12.689,2.35c-6.463,0-10.617-0.926-12.461-2.779
			c-1.844-1.854-2.766-6.012-2.766-12.475l-0.027-5.397l0.027-3.249c0-5.426,1.025-9.033,3.075-10.823
			c2.05-1.79,6.181-2.686,12.394-2.686c6.23,0,10.25,0.587,12.058,1.759c1.808,1.173,2.712,3.791,2.712,7.855v1.396h-4.055v-0.913
			c0-2.989-0.613-4.839-1.839-5.546c-1.227-0.707-4.427-1.061-9.601-1.061c-4.78,0-7.771,0.568-8.97,1.705
			c-1.2,1.137-1.799,3.979-1.799,8.527l-0.054,4.861l0.027,5.236c0,4.619,0.667,7.457,2,8.514c1.334,1.055,4.892,1.584,10.675,1.584
			c4.422,0,7.157-0.502,8.205-1.504c1.047-1.004,1.571-3.625,1.571-7.869c0-0.34-0.072-1.092-0.215-2.256H74.637V1350.508z"/>
		<path stroke="#000000" stroke-miterlimit="10" d="M99.344,1350.266h-3.733c0-2.99,0.676-5,2.027-6.029
			c1.352-1.029,3.997-1.545,7.936-1.545c4.279,0,7.17,0.631,8.674,1.895c1.504,1.262,2.256,3.665,2.256,7.211v16.945h-3.76
			l0.295-2.766l-0.081-0.027c-1.433,2.111-4.342,3.168-8.728,3.168c-6.481,0-9.722-2.604-9.722-7.814
			c0-3.098,0.725-5.236,2.175-6.418s4.073-1.773,7.869-1.773c4.512,0,7.215,0.887,8.11,2.66l0.081-0.027v-3.115
			c0-2.938-0.403-4.839-1.208-5.707c-0.806-0.869-2.569-1.303-5.291-1.303c-4.619,0-6.929,1.299-6.929,3.895
			C99.317,1349.639,99.326,1349.889,99.344,1350.266z M105.387,1356.039c-2.883,0-4.758,0.305-5.626,0.914
			c-0.869,0.607-1.303,1.914-1.303,3.92c0,2.076,0.43,3.451,1.289,4.123c0.859,0.67,2.605,1.006,5.237,1.006
			c5.299,0,7.949-1.611,7.949-4.834c0-2.023-0.515-3.383-1.544-4.082C110.359,1356.389,108.358,1356.039,105.387,1356.039z"/>
		<path stroke="#000000" stroke-miterlimit="10" d="M144.918,1332.084v36.658h-3.76l0.188-3.33l-0.107-0.027
			c-1.182,2.488-3.93,3.732-8.245,3.732c-3.939,0-6.629-0.957-8.07-2.873c-1.441-1.916-2.162-5.488-2.162-10.715
			c0-4.816,0.725-8.16,2.175-10.031s4.046-2.807,7.788-2.807c4.673,0,7.457,1.209,8.352,3.626l0.081-0.054v-14.18H144.918z
			 M133.612,1345.807c-2.775,0-4.619,0.641-5.532,1.92c-0.913,1.281-1.37,3.873-1.37,7.775c0,4.297,0.452,7.121,1.356,8.473
			c0.904,1.352,2.779,2.027,5.626,2.027c3.097,0,5.111-0.676,6.042-2.027c0.931-1.352,1.396-4.293,1.396-8.822
			c0-3.67-0.515-6.145-1.544-7.426C138.558,1346.447,136.566,1345.807,133.612,1345.807z"/>
		<path stroke="#000000" stroke-miterlimit="10" d="M173.009,1343.068v27.338c0,3.725-0.806,6.285-2.417,7.682
			s-4.565,2.094-8.862,2.094c-3.832,0-6.445-0.59-7.842-1.771s-2.095-3.393-2.095-6.633h3.625c0,2.201,0.407,3.633,1.222,4.297
			c0.815,0.662,2.601,0.992,5.358,0.992c2.864,0,4.789-0.43,5.774-1.289c0.984-0.859,1.477-2.541,1.477-5.049v-5.156l-0.081-0.025
			c-0.967,2.381-3.76,3.57-8.379,3.57c-3.796,0-6.41-0.936-7.842-2.807c-1.433-1.869-2.148-5.285-2.148-10.244
			c0-5.139,0.729-8.652,2.188-10.541c1.459-1.889,4.167-2.834,8.124-2.834c4.207,0,6.956,1.289,8.245,3.867l0.081-0.026
			l-0.188-3.464H173.009z M161.81,1345.807c-2.954,0-4.87,0.623-5.747,1.867c-0.877,1.244-1.316,3.971-1.316,8.178
			c0,4.242,0.438,6.996,1.316,8.258c0.877,1.262,2.793,1.893,5.747,1.893c2.99,0,4.959-0.693,5.908-2.08
			c0.949-1.389,1.423-4.275,1.423-8.662c0-3.867-0.475-6.408-1.423-7.627C166.769,1346.416,164.8,1345.807,161.81,1345.807z"/>
		<path stroke="#000000" stroke-miterlimit="10" d="M197.447,1360.98h3.84l0.027,0.939c0,2.668-0.81,4.535-2.431,5.6
			c-1.62,1.066-4.462,1.598-8.526,1.598c-4.727,0-7.828-0.863-9.306-2.592c-1.477-1.727-2.215-5.357-2.215-10.889
			c0-5.121,0.743-8.559,2.229-10.312c1.486-1.755,4.395-2.633,8.728-2.633c4.727,0,7.824,0.762,9.292,2.283
			c1.468,1.521,2.202,4.727,2.202,9.615v2.014h-18.477c0,4.045,0.434,6.623,1.302,7.734c0.869,1.109,2.896,1.664,6.083,1.664
			c3.025,0,4.991-0.264,5.895-0.791c0.904-0.529,1.356-1.67,1.356-3.424V1360.98z M197.447,1353.676l-0.027-1.209
			c0-2.775-0.457-4.578-1.37-5.41c-0.913-0.834-2.883-1.25-5.908-1.25c-3.044,0-5.018,0.488-5.922,1.465
			c-0.904,0.975-1.356,3.109-1.356,6.404H197.447z"/>
		<path stroke="#000000" stroke-miterlimit="10" d="M220.838,1343.068v3.115h-9.883v15.711c0,2.738,1.217,4.107,3.652,4.107
			c2.417,0,3.625-1.227,3.625-3.678l0.027-1.264l0.054-1.422h3.491l0.027,1.906c0,5.049-2.399,7.572-7.197,7.572
			c-4.959,0-7.439-2.104-7.439-6.311v-0.912v-15.711h-3.545v-3.115h3.545v-6.178h3.76v6.178H220.838z"/>
		<path stroke="#000000" stroke-miterlimit="10" d="M225.511,1343.068h3.76l-0.376,2.953l0.081,0.081
			c1.486-2.417,3.938-3.626,7.358-3.626c4.727,0,7.09,2.436,7.09,7.305l-0.027,1.773h-3.706l0.081-0.645
			c0.054-0.682,0.081-1.137,0.081-1.369c0-2.633-1.433-3.949-4.297-3.949c-4.189,0-6.284,2.588-6.284,7.762v15.389h-3.76V1343.068z"
			/>
		<path stroke="#000000" stroke-miterlimit="10" d="M281.149,1343.068h3.625l-0.107,3.49l0.107,0.081
			c1.146-2.632,3.992-3.948,8.54-3.948c3.67,0,6.154,0.645,7.452,1.934c1.298,1.289,1.947,3.76,1.947,7.412v16.705h-3.76v-16.383
			v-0.967c0-2.201-0.421-3.684-1.262-4.443c-0.842-0.762-2.462-1.143-4.861-1.143c-5.282,0-7.922,2.498-7.922,7.494v15.441h-3.76
			V1343.068z"/>
	</g>
</g>
<g>
	<g>
		<g>
			<path fill="none" stroke="#000000" stroke-miterlimit="10" d="M257.115,1373.916l0.445,0.971
				c-0.283,0.189-0.603,0.348-0.772,0.637c0.073,0.348,0.669,0.48,0.758,0.846c-0.235,0.211-0.589,0.297-0.811,0.588
				c0.185,0.242,0.464,0.617,0.747,0.762c-0.296,0.148-0.375,0.273-0.555,0.646c0.158,0.125,0.445,0.443,0.735,0.66
				c0.37,0.355,1.279,1.246,1.279,1.246c0.003,0.043,0.192,0.09,0.441,0.127l0.975,1.047c0.873,0.307,1.708,0.328,2.774,0.049
				l1.089-1.135c0.148-0.031,0.295-0.059,0.406-0.098c0.594-0.42,0.784-0.73,1.33-1.299c0.192-0.148,0.463-0.699,0.582-0.871
				c-0.219-0.322-0.222-0.314-0.459-0.5c0.153-0.215,0.625-0.32,0.701-0.711l-0.712-0.562c0.089-0.324,0.593-0.504,0.683-0.832
				c-0.086-0.283-0.496-0.439-0.694-0.65l0.251-0.92H257.115z"/>
			<path fill="none" stroke="#000000" stroke-width="3" stroke-linecap="round" stroke-linejoin="round" d="M257.115,1373.916
				l0.445,0.971c-0.283,0.189-0.603,0.348-0.772,0.637c0.073,0.348,0.669,0.48,0.758,0.846c-0.235,0.211-0.589,0.297-0.811,0.588
				c0.185,0.242,0.464,0.617,0.747,0.762c-0.296,0.148-0.375,0.273-0.555,0.646c0.158,0.125,0.445,0.443,0.735,0.66
				c0.37,0.355,1.279,1.246,1.279,1.246c0.003,0.043,0.192,0.09,0.441,0.127l0.975,1.047c0.873,0.307,1.708,0.328,2.774,0.049
				l1.089-1.135c0.148-0.031,0.295-0.059,0.406-0.098c0.594-0.42,0.784-0.73,1.33-1.299c0.192-0.148,0.463-0.699,0.582-0.871
				c-0.219-0.322-0.222-0.314-0.459-0.5c0.153-0.215,0.625-0.32,0.701-0.711l-0.712-0.562c0.089-0.324,0.593-0.504,0.683-0.832
				c-0.086-0.283-0.496-0.439-0.694-0.65l0.251-0.92H257.115z"/>
			<path fill="none" stroke="#000000" stroke-miterlimit="10" d="M261.561,1340.736c-6.935,0-12.94,5.723-12.557,12.758
				c-0.208,1.83,2.149,6.24,4.234,8.713c2.829,5.008,3.099,5.605,3.286,11.074c0.144,0.652,0.484,0.855,0.824,0.93
				c3.645,0.697,6.46,0.303,8.625,0.041c0.525-0.174,0.838-0.498,0.802-0.945c0.21-7.424,1.361-6.973,4.823-12.688
				c1.916-2.574,2.622-6.375,2.64-8.139C274.443,1342.648,265.293,1340.842,261.561,1340.736"/>
			<path fill="none" stroke="#000000" stroke-width="3" stroke-linecap="round" stroke-linejoin="round" d="M261.561,1340.736
				c-6.935,0-12.94,5.723-12.557,12.758c-0.208,1.83,2.149,6.24,4.234,8.713c2.829,5.008,3.099,5.605,3.286,11.074
				c0.144,0.652,0.484,0.855,0.824,0.93c3.645,0.697,6.46,0.303,8.625,0.041c0.525-0.174,0.838-0.498,0.802-0.945
				c0.21-7.424,1.361-6.973,4.823-12.688c1.916-2.574,2.622-6.375,2.64-8.139C274.443,1342.648,265.293,1340.842,261.561,1340.736z"
				/>
			
				<line fill="none" stroke="#000000" stroke-width="3" stroke-linecap="round" stroke-linejoin="round" x1="254.384" y1="1321.875" x2="258.427" y2="1335.186"/>
			
				<line fill="none" stroke="#000000" stroke-width="3" stroke-linecap="round" stroke-linejoin="round" x1="240.919" y1="1328.529" x2="249.502" y2="1339.209"/>
			
				<line fill="none" stroke="#000000" stroke-width="3" stroke-linecap="round" stroke-linejoin="round" x1="275.406" y1="1339.615" x2="284.076" y2="1328.752"/>
			
				<line fill="none" stroke="#000000" stroke-width="3" stroke-linecap="round" stroke-linejoin="round" x1="271.062" y1="1322.461" x2="266.782" y2="1335.578"/>
		</g>
	</g>
</g>
</svg>
